<svg version="1.1" id="Layer_1" xmlns="http://www.w3.org/2000/svg" x="0" y="0" viewBox="0 0 48 48" xml:space="preserve"><path fill="#FFF" d="M7.1 6.9h40v40.4h-40z"/><path fill="#EAEAEA" d="M7.1 6.9h8.3v40.4H7.1z"/><path fill="#FF8F26" d="M12.4 6.1C12.2 3.1 9.7.8 6.7.8S1.2 3.1 1 6.1v35.4c0 3.2 2.6 5.7 5.7 5.7s5.7-2.6 5.7-5.7V6.1z"/><path fill="#E2771E" d="M1 6.1v35.4c0 2.3 1.4 4.3 3.4 5.2V1.3c-2 .8-3.3 2.6-3.4 4.8z"/><circle fill="#CCC" cx="6.7" cy="41.5" r="5.7"/><path fill="#E2771E" d="M6.7 44.3c-1.5 0-2.8-1.2-2.8-2.8 0-1.5 1.2-2.8 2.8-2.8s2.8 1.2 2.8 2.8c0 1.5-1.3 2.8-2.8 2.8z"/><path fill="#FF8F26" d="M21.5 39.7h18.2v2.8H21.5z"/><path fill="#E2771E" d="M21.5 41.3h18.2v1.2H21.5z"/><path fill="#FFFEFC" d="M39.7 39.7h3v2.8h-3z"/><path fill="#FFF" d="M21.5 39.7l-4.8 1.5 4.8 1.3"/><path fill="none" d="M21.5 42.5v-2.8"/><path d="M39.1 46.5H10.8c1.4-1.2 2.4-3 2.4-5v-20c0-.4-.3-.7-.7-.7-.4 0-.7.3-.7.7v15.9c-1.2-1.4-3-2.4-5-2.4s-3.8.9-5 2.4V6.2v-.1c.2-2.6 2.4-4.7 5-4.7s4.8 2 5 4.6v12.2c0 .4.3.7.7.7.4 0 .7-.3.7-.7V7.5h5.4c.4 0 .7-.3.7-.7 0-.4-.3-.7-.7-.7h-5.4V6c-.2-3.4-3.1-6-6.5-6S.5 2.6.2 5.9v35.6c0 3.6 2.9 6.5 6.5 6.5h32.5c.4 0 .7-.3.7-.7s-.3-.8-.8-.8zm-37.4-5c0-2.8 2.2-5 5-5s5 2.2 5 5-2.2 5-5 5-5-2.2-5-5zM47.1 6.1H22.5c-.4 0-.7.3-.7.7 0 .4.3.7.7.7h23.8v38.9h-3.2c-.4 0-.7.3-.7.7s.3.7.7.7h4c.4 0 .7-.3.7-.7V6.9c0-.4-.3-.8-.7-.8z"/><path d="M10.2 41.5c0-1.9-1.6-3.5-3.5-3.5s-3.5 1.6-3.5 3.5S4.7 45 6.7 45s3.5-1.5 3.5-3.5zm-5.5 0c0-1.1.9-2 2-2s2 .9 2 2-.9 2-2 2-2-.9-2-2zM21.5 39h-.3l-4.8 1.5c-.3.1-.5.4-.5.8 0 .3.3.6.6.7l4.8 1.3h21.4c.4 0 .7-.3.7-.7v-2.8c0-.4-.3-.7-.7-.7L21.5 39zM39 41.8H22.3v-1.3H39v1.3zm-18.2-1v.8l-1.4-.4 1.4-.4zm21.2 1h-1.5v-1.3H42v1.3zM30.3 10.7c-.3-.3-.7-.3-1 0L18.6 21c-.1.1-.2.3-.2.5V36c0 .4.3.7.7.7h21.2c.4 0 .7-.3.7-.7V21.5c0-.2-.1-.4-.2-.5L30.3 10.7zm-.6 1.6l8.8 8.5H21l8.7-8.5zm2.4 22.9h-4.7v-7h4.7v7zm1.5 0v-7.8c0-.4-.3-.7-.7-.7h-6.1c-.4 0-.7.3-.7.7v7.8h-6v-13h19.7v13h-6.2z"/><path d="M29.7 20.1c1.4 0 2.5-1.1 2.5-2.5s-1.1-2.5-2.5-2.5-2.5 1.1-2.5 2.5 1.1 2.5 2.5 2.5zm0-3.6c.6 0 1 .5 1 1s-.5 1-1 1c-.6 0-1-.5-1-1s.5-1 1-1z"/></svg>